<svg width="120" height="27" viewBox="0 0 120 27" xmlns="http://www.w3.org/2000/svg" xmlns:xlink="http://www.w3.org/1999/xlink">
  <title>
    Page 1
  </title>
  <defs>
    <path id="a" d="M11.835578 26.25H0V.2903125h23.6711563V26.25z"/>
    <path id="c" d="M13.75 18.4742187V.2551562H.186v18.2190625H13.75z"/>
    <path id="e" d="M16.877125.265625H.088375v25.68h16.78875v-25.68z"/>
    <path id="g" d="M16.95475.265625H.166v25.68h16.78875v-25.68z"/>
  </defs>
  <g fill="none" fill-rule="evenodd">
    <g transform="translate(0 .047)">
      <mask id="b" fill="#fff">
        <use xlink:href="#a"/>
      </mask>
      <path d="M21.4620938 7.9440625V1.56875c-1.72-.639375-4.956875-1.2784375-7.8828125-1.2784375-8.3084376 0-13.579375 5.28375-13.579375 13.3178125 0 7.2146875 4.415625 12.641875 13.513125 12.641875 2.785625 0 6.0109375-.538125 7.6334375-1.1109375v-7.884375h2.5246875v-2.998125h-9.1528126v2.998125h2.840625V22.84c-1.4046874.3628125-3.0596875.4478125-4.284375.4478125-5.149375 0-8.5896874-4.0603125-8.5896874-9.8265625 0-6.4496875 3.1765625-10.2103125 9.189375-10.2103125 1.80375 0 3.2303125.369375 4.158125.6265625v4.0665625h3.6596875-.03z" fill="#FFFDFD" mask="url(#b)"/>
    </g>
    <path d="M32.925125 25.9985312v-2.8321875h-2.53375v-5.53875c.0340625-3.14625 1.4725-6.3821875 4.8634375-6.3821875.7871875 0 1.325.1009375 1.805.2728125l.4115625-3.40625c-.3428125-.1384375-1.2325-.31-2.1584375-.31-2.568125 0-4.5209375 1.9975-5.205 5.356875l-.0684375-.129375c.205625-1.776875.205625-3.58625.205625-4.9175h-6.4125v2.8321875h2.683125v12.2221875h-2.2359375v2.8546876l8.6453125-.0225zM40.9875625 17.295375c0-3.1315625 1.4696875-6.2975 5.4509375-6.2975 2.79625 0 4.984375 1.769375 4.984375 5.7534375 0 3.4715625-1.6140625 6.364375-5.2721875 6.364375-3.6203125 0-5.163125-2.8584375-5.163125-5.8203125M37.15225 17.431c0 4.4940625 2.373125 8.8390625 8.89125 8.8390625 6.2903125 0 9.2146875-4.0725 9.2146875-9.1103125 0-4.3584375-2.048125-9.3159375-8.748125-9.3159375-5.685 0-9.3578125 3.8009375-9.3578125 9.5871875M105.00275 22.1127187c-1.46375.7975-3.332813 1.44125-5.54625 1.44125-3.5090625 0-6.029375-2.2521875-6.06375-5.7534375h12.419375v-.48125c0-5.51375-2.568438-9.5009374-7.8209375-9.5009374-5.6746875 0-8.43375 4.146875-8.43375 9.4128124 0 5.610625 3.3153125 9.034375 9.149375 9.065625 2.6571875 0 4.9306255-.6678125 6.1006255-1.1446875l.195312-3.039375zm-11.61-6.8459375c.135625-2.2371875 1.2684375-4.651875 4.5046875-4.651875 3.2356255 0 4.1884375 2.805 4.1884375 4.3325v.319375H93.39275z" fill="#FFFDFD"/>
    <g transform="translate(106.25 7.547)">
      <mask id="d" fill="#fff">
        <use xlink:href="#c"/>
      </mask>
      <path d="M.647875 18.4517187h8.6303125v-2.8321875h-2.53375v-5.53875c.034375-3.14625 1.4728125-6.3821874 4.8634375-6.3821874.7871875 0 1.2521875.1009374 1.730625.2728124l.4115625-3.40625c-.3428125-.1384375-1.2328125-.31-2.1584375-.31-2.568125 0-4.5190625 1.9975-5.205 5.356875l-.0684375-.129375c.205625-1.776875.205625-3.58625.205625-4.9175H.186v2.8321875h2.6828125v12.2221875H.6331875v2.8546875l.0146875-.0225z" fill="#FFFDFD" mask="url(#d)"/>
    </g>
    <g transform="translate(54.688 .047)">
      <mask id="f" fill="#fff">
        <use xlink:href="#e"/>
      </mask>
      <path d="M16.877125 12.1425V9.9453125S12.564 7.275625 12.530875 5.2725c-.0275-.8853125.59125-1.611875 1.8946875-1.64 1.3253125-.0184375 1.891875.885625 2.4515625 1.4284375v-4.24c-3.3796875-1.5478125-7.71125.2146875-7.71125 4.3509375-.0203125 3.26875 3.328125 5.6546875 3.8234375 6.0990625v4.7075l-6.1875-5.054375H8.924625V8.09625H.7955625v2.8278125H2.904l6.72125 5.64125-7.5665625 6.5528125H.088375v2.8275h8.4828125v-2.8275h-2.186875l6.605-6.0659375v6.0659375H10.868375v2.8275h6.00875V12.1425z" fill="#FFFDFD" mask="url(#f)"/>
    </g>
    <g transform="translate(72.813 .047)">
      <mask id="h" fill="#fff">
        <use xlink:href="#g"/>
      </mask>
      <path d="M.166 12.1425V9.9453125S4.479125 7.275625 4.51225 5.2725c.0275-.8853125-.59125-1.611875-1.894375-1.64C1.2925625 3.6140625.7256875 4.518125.166 5.0609375v-4.24C3.5456875-.726875 7.87725 1.035625 7.87725 5.171875c.0203125 3.26875-3.328125 5.6546875-3.8234375 6.0990625v4.7075l6.1875-5.054375H8.1185V8.09625h8.129375v2.8278125h-2.10875l-6.5446875 5.64125 7.39 6.5528125H16.95475v2.8275H8.4719375v-2.8275h2.186875l-6.605-6.0659375v6.0659375H6.17475v2.8275H.166V12.1425z" fill="#FFFDFD" mask="url(#h)"/>
    </g>
    <path d="M117.149969 24.769875h.12125c.141562 0 .25625-.0471875.25625-.161875 0-.10125-.074063-.16875-.235938-.16875-.0675 0-.114687.006875-.141562.0134375v.3171875zm-.006875.6275h-.256563v-1.10625c.10125-.0203125.243125-.0340625.425313-.0340625.209062 0 .303437.0340625.384375.0809375.060625.0475.107812.1353125.107812.243125 0 .12125-.094375.215625-.229375.25625v.0134375c.108125.040625.168438.12125.2025.2696875.03375.16875.054063.23625.080938.276875h-.276563c-.034062-.040625-.054062-.1415625-.0875-.2696875-.020625-.1215625-.087812-.175625-.229687-.175625h-.12125v.4453125zm-.68125-.5803125c0 .4925.364375.88375.863437.88375.485625 0 .843125-.39125.843125-.876875 0-.4921875-.3575-.890625-.85-.890625-.492187 0-.856562.3984375-.856562.88375zm1.99 0c0 .6275-.4925 1.1196875-1.133438 1.1196875-.634062 0-1.139687-.4921875-1.139687-1.1196875 0-.6134375.505625-1.10625 1.139687-1.10625.640938 0 1.133438.4928125 1.133438 1.10625z" fill="#FFFDFD"/>
  </g>
</svg>
